<svg xmlns="http://www.w3.org/2000/svg" width="800" height="217" viewBox="0 0 800 217">
  <rect width="100%" height="100%" fill="#1A1A1A" rx="12"/>
  <path d="M213.66 47.35C218.34 47.35 221.00 49.94 221.00 52.82C221.00 61.82 188.10 92.35 188.10 111.72C188.10 118.56 194.65 119.56 194.65 117.48C194.65 109.63 225.90 75.28 231.80 75.28C231.80 75.28 208.04 103.08 208.04 112.51C208.04 119.28 213.80 118.27 213.80 118.27C221.58 108.40 239.86 90.19 245.84 85.87C244.40 87.38 242.10 89.83 239.86 92.92C236.41 97.46 231.66 104.73 231.66 113.44C231.66 128.64 244.18 137.28 254.48 137.28C259.52 137.28 262.69 135.33 264.42 133.75C266.36 131.95 267.08 130.22 267.08 130.15C267.08 130.08 267.80 127.99 266.94 126.69C266.50 126.12 265.78 125.76 264.85 125.76C264.20 125.76 262.69 134.61 253.90 134.61C246.34 134.61 238.64 126.33 238.64 115.10C238.64 105.88 245.48 98.18 249.94 92.28C252.90 88.39 255.06 85.51 255.06 84.00C255.06 82.05 252.46 78.38 249.37 78.38C248.86 78.38 247.42 78.38 231.08 94.80C224.46 101.42 217.98 108.19 215.82 110.35C218.70 104.80 223.95 97.75 229.42 90.84C229.42 90.84 240.44 77.66 240.44 74.42C240.44 72.26 237.34 68.08 233.96 68.08C230.58 68.08 203.36 96.96 203.36 96.96C203.36 93.86 226.54 69.38 226.54 58.44C226.54 54.33 225.10 44.83 214.38 44.83C193.93 44.83 172.11 60.67 172.11 73.63C172.11 79.60 177.08 84.43 185.36 84.43C189.82 84.43 193.86 82.48 195.44 79.03C196.52 76.72 196.23 74.92 195.73 73.84C195.22 72.62 194.43 71.97 194.43 71.97C194.36 71.90 193.42 71.18 192.56 71.40C192.20 71.47 191.84 71.76 191.70 72.19C191.55 72.48 195.44 75.57 193.93 78.81C192.99 80.90 190.69 81.62 188.02 81.62C183.42 81.62 180.18 79.39 180.18 75.43C180.18 60.88 204.15 47.35 213.73 47.35L213.66 47.35ZM273.27 82.27C265.21 82.27 247.71 101.42 247.71 109.77C247.71 114.88 251.89 118.20 254.48 118.20C257.14 118.20 266.22 107.54 266.22 107.54C266.22 107.54 264.99 110.20 264.99 111.93C264.99 113.73 267.87 118.20 270.82 118.20C277.38 118.20 292.42 96.81 294.01 94.51C295.52 92.13 293.36 91.41 292.28 93.00C285.94 102.57 275.14 114.45 272.91 114.45C270.61 114.45 277.38 106.89 277.38 101.64C277.38 96.38 271.47 95.30 272.26 96.60C272.98 97.89 258.08 114.38 256.35 114.38C251.17 114.38 270.32 89.90 278.74 89.90C280.33 89.90 277.52 82.27 273.27 82.27ZM332.89 76.72C331.81 72.84 327.70 68.01 318.70 68.01C317.98 68.01 317.34 68.01 316.62 68.01C318.20 64.92 319.14 62.54 319.14 61.32C319.14 54.04 312.15 51.52 312.15 53.61C312.15 55.99 309.63 61.53 306.03 68.30C303.51 68.59 299.70 68.88 295.38 68.88C290.41 68.88 286.81 67.22 284.72 65.49C283.50 64.41 282.34 64.92 283.21 67.44C284.29 70.32 287.24 73.48 295.23 73.48C298.11 73.48 300.78 73.48 303.30 73.34C295.38 87.81 285.01 104.88 285.01 109.84C285.01 113.30 285.87 118.20 291.27 118.20C297.90 118.20 314.02 96.81 315.54 94.51C317.12 92.13 314.89 91.41 313.88 93.00C307.47 102.57 295.59 114.45 293.43 114.45C288.18 114.45 305.24 88.75 314.10 72.69C315.54 72.62 317.05 72.62 318.56 72.62C326.55 72.62 331.09 76.87 331.09 78.96C331.09 78.96 333.61 79.24 332.89 76.72ZM330.08 118.20C336.63 118.20 352.26 96.81 353.77 94.51C355.35 92.13 353.19 91.41 352.11 93.00C345.70 102.57 334.40 114.45 332.24 114.45C325.47 114.45 342.75 93.50 342.75 89.97C342.75 86.52 341.74 82.41 338.79 82.41C335.84 82.41 318.78 98.83 318.78 98.83C318.78 98.83 337.14 73.48 337.14 67.44C337.14 61.46 331.52 58.51 331.52 59.95C331.52 68.01 303.80 104.80 303.80 112.08C303.80 116.83 309.92 119.78 309.92 116.97C309.92 110.20 333.75 88.75 333.75 88.75C333.75 88.75 323.38 103.80 323.38 107.97C323.38 112.15 325.40 118.20 330.08 118.20ZM366.37 80.40C367.45 80.40 367.30 80.32 369.54 76.51C371.77 72.62 374.00 72.26 374.22 69.81C374.43 67.36 369.39 65.13 367.74 65.13C366.08 65.13 362.77 66.86 362.34 72.12C361.83 77.37 364.71 80.40 366.37 80.40ZM373.64 92.71C367.23 102.43 355.86 114.31 353.70 114.31C346.14 114.31 362.12 96.52 362.62 90.91C363.13 85.29 359.89 82.48 358.16 82.48C356.43 82.48 356.79 84.28 356.29 85.65C352.90 94.29 345.56 103.08 345.13 108.26C344.77 112.15 346.06 118.05 351.54 118.05C358.16 118.05 373.78 96.60 375.37 94.29C376.88 91.92 374.72 91.20 373.64 92.71ZM399.27 93.07C392.94 102.64 379.98 113.88 375.15 113.88C371.41 113.88 374.07 109.05 374.07 109.05C377.82 109.05 393.08 97.24 393.08 90.40C393.08 83.56 389.91 82.27 388.04 82.27C383.29 82.27 366.08 96.24 366.08 109.27C366.08 118.12 372.99 118.20 372.99 118.20C382.14 118.20 399.49 96.96 401.00 94.58C402.51 92.28 400.35 91.48 399.27 93.07ZM387.32 91.20C389.70 91.20 385.09 100.56 375.30 106.32C375.30 106.32 384.87 91.20 387.32 91.20ZM413.17 118.20C419.72 118.20 435.49 96.88 437.00 94.51C438.58 92.20 436.35 91.48 435.34 93.00C428.94 102.64 417.06 115.32 414.90 115.32C410.58 115.32 426.92 95.88 427.35 90.04C427.78 84.21 421.59 80.97 421.45 82.63C420.87 90.91 398.91 115.24 397.11 115.24C392.36 115.24 409.28 95.08 409.71 89.32C410.14 83.56 403.59 81.04 403.45 82.70C402.94 89.47 390.27 105.45 389.91 110.49C389.48 115.96 392.72 118.20 395.82 118.20C400.21 118.20 408.78 106.17 408.78 106.17C405.90 109.92 407.98 118.20 413.17 118.20ZM503.89 93.28C503.89 93.28 492.73 119.28 464.07 119.28C458.02 119.28 453.70 115.53 454.93 106.39L455.07 104.80C456.01 98.76 460.11 90.98 463.71 85.08C464.43 83.78 465.94 81.69 466.45 80.83C467.17 79.89 467.89 78.88 468.61 77.95C470.48 75.57 472.64 73.27 475.23 70.96C478.54 68.01 481.06 66.14 482.65 65.13C488.84 61.32 493.30 59.30 496.47 59.30C498.06 59.30 499.93 60.45 500.07 62.32C500.00 62.97 499.86 63.55 499.86 64.12C499.86 66.57 500.86 69.24 500.86 69.24C500.86 69.24 503.46 76.36 505.69 76.36C509.58 76.36 504.75 72.98 507.06 67.80C509.07 63.19 512.46 58.29 513.03 52.96C513.25 50.52 513.03 49.15 513.03 49.15C512.02 43.96 507.92 40.00 505.83 40.00C505.76 40.00 505.69 40.00 505.62 40.00C504.68 39.93 503.53 40.94 503.53 42.31C503.53 43.17 503.74 45.12 505.26 47.28C504.75 49.65 504.10 52.10 503.38 54.12C501.87 51.52 498.99 49.51 494.31 49.51C488.98 49.51 482.72 51.81 475.88 56.64C472.50 58.87 469.26 61.82 466.09 65.06C462.92 68.44 459.97 71.76 457.66 75.14C456.51 76.65 455.43 78.31 454.64 79.82C453.70 81.33 452.12 84.00 451.26 85.72C448.88 90.55 447.37 95.01 446.79 99.04C444.56 115.32 453.42 122.37 464.07 122.37C494.67 122.37 505.76 95.01 505.76 95.01C507.49 92.49 505.11 91.56 503.89 93.28ZM521.89 109.56C528.01 109.56 534.99 96.52 536.36 94.36C537.94 92.06 535.71 91.27 534.70 92.85C528.87 101.64 525.56 107.04 522.10 107.04C521.74 107.04 520.95 106.75 520.74 106.53C523.04 103.51 524.34 101.20 524.34 99.91C524.34 93.86 517.21 96.45 517.21 102.28C517.21 104.88 517.86 106.68 517.86 106.68C517.86 106.68 510.01 115.17 505.76 115.17C499.50 115.17 511.74 89.54 523.69 89.54C526.93 89.54 527.50 88.53 527.22 88.03C525.42 85.00 522.54 82.34 518.50 82.34C510.66 82.34 496.83 96.24 496.83 109.12C496.83 116.76 501.66 118.20 504.54 118.20C504.75 118.20 504.97 118.20 505.26 118.20C505.33 118.12 505.47 118.12 505.62 118.12C505.69 118.12 505.76 118.12 505.83 118.05C509.79 117.48 514.04 114.31 517.50 110.71C518.14 109.99 518.50 109.56 518.50 109.56L518.50 109.56C518.79 109.27 519.08 108.91 519.30 108.62C519.87 109.05 520.81 109.56 521.89 109.56ZM565.45 93.00C559.04 102.57 547.66 114.52 545.50 114.52L545.50 114.45C539.31 114.45 552.70 96.74 556.38 91.84C556.52 91.70 556.66 91.48 556.81 91.34C560.05 87.60 554.36 83.42 553.14 82.48C551.98 81.48 551.12 82.56 550.11 83.13C548.53 84.00 538.95 88.96 538.95 88.96C538.95 88.96 548.96 75.43 548.96 69.60C548.96 66.64 546.73 64.92 544.06 64.92C539.10 64.92 530.53 72.98 530.53 84.21C530.53 92.20 534.06 93.36 536.14 93.36C540.03 93.36 543.56 92.20 545.65 91.34C542.62 98.11 536.65 105.52 536.65 109.63C536.65 113.52 537.87 118.20 543.34 118.20C549.97 118.20 565.59 96.81 567.10 94.51C568.69 92.13 566.46 91.41 565.45 93.00ZM536.00 83.92C536.00 80.40 541.11 73.34 543.56 73.34C546.01 73.34 541.47 80.25 537.37 87.88C537.37 87.88 536.00 86.52 536.00 83.92ZM578.05 118.20C585.18 118.20 600.44 96.38 601.95 94.08C603.46 91.70 601.30 90.98 600.30 92.56C593.89 102.14 583.38 114.52 579.06 114.52C575.74 114.52 592.59 93.00 592.59 89.47C592.59 85.94 591.08 82.27 588.56 82.27C586.11 82.27 573.01 95.59 573.01 95.59C573.01 95.59 575.46 93.21 575.46 89.68C575.46 82.48 570.20 79.75 570.20 82.27C570.20 89.47 555.94 104.37 555.94 110.28C555.94 115.96 560.84 121.29 560.84 115.96C560.84 112.58 581.43 88.60 583.81 88.60C583.81 88.60 573.15 103.00 573.15 109.05C573.15 114.45 575.24 118.20 578.05 118.20ZM625.64 93.07C619.30 102.64 606.34 113.88 601.52 113.88C597.78 113.88 600.44 109.05 600.44 109.05C604.18 109.05 619.45 97.24 619.45 90.40C619.45 83.56 616.28 82.27 614.41 82.27C609.66 82.27 592.45 96.24 592.45 109.27C592.45 118.12 599.36 118.20 599.36 118.20C608.50 118.20 625.86 96.96 627.37 94.58C628.88 92.28 626.72 91.48 625.64 93.07ZM613.69 91.20C616.06 91.20 611.46 100.56 601.66 106.32C601.66 106.32 611.24 91.20 613.69 91.20Z" fill="#FAFAF8"/>
  <line x1="360" y1="157.27562712125126" x2="440" y2="157.27562712125126" stroke="#6B6B6B" stroke-width="1"/>
  <path d="M299.97 182.28C298.13 182.28 296.84 183.31 296.84 184.92C296.84 186.60 298.27 187.13 299.90 187.61C301.33 188.03 302.49 188.38 302.49 189.54C302.49 190.59 301.56 191.25 300.31 191.25C298.91 191.25 297.86 190.42 297.44 189.02L296.33 189.42C296.84 191.18 298.35 192.33 300.32 192.33C302.28 192.33 303.73 191.21 303.73 189.51C303.73 187.61 301.98 187.09 300.42 186.63C299.01 186.22 298.06 185.89 298.06 184.87C298.06 183.93 298.85 183.34 300.03 183.34C301.14 183.34 302.07 183.84 302.41 184.98L303.53 184.59C303.07 183.19 301.70 182.28 299.97 182.28ZM313.82 192.30C316.52 192.30 318.42 190.23 318.42 187.29C318.42 184.35 316.52 182.28 313.82 182.28C311.13 182.28 309.22 184.35 309.22 187.29C309.22 190.23 311.13 192.30 313.82 192.30ZM310.44 187.30C310.44 184.95 311.84 183.34 313.82 183.34C315.80 183.34 317.19 184.95 317.19 187.30C317.19 189.65 315.80 191.22 313.82 191.22C311.84 191.22 310.44 189.65 310.44 187.30ZM324.21 182.39L324.21 192.19L325.40 192.19L325.40 187.75L330.26 187.75L330.26 186.71L325.40 186.71L325.40 183.41L330.54 183.41L330.54 182.39ZM343.19 182.39L335.63 182.39L335.63 183.41L338.81 183.41L338.81 192.19L340.02 192.19L340.02 183.41L343.19 183.41ZM351.18 192.19L352.51 192.19L354.66 184.21L356.77 192.19L358.10 192.19L361.10 182.39L359.86 182.39L357.46 190.59L355.30 182.39L353.98 182.39L351.83 190.59L349.42 182.39L348.19 182.39ZM369.83 182.39L365.99 192.19L367.22 192.19L368.20 189.65L372.94 189.65L373.92 192.19L375.15 192.19L371.31 182.39ZM368.61 188.62L370.57 183.58L372.53 188.62ZM384.24 187.19L381.77 187.19L381.77 183.42L384.24 183.42C386.69 183.42 386.69 187.19 384.24 187.19ZM380.58 192.19L381.77 192.19L381.77 188.23L383.96 188.23L386.50 192.19L387.87 192.19L385.28 188.10C388.25 187.25 387.93 182.39 384.33 182.39L380.58 182.39ZM393.00 182.39L393.00 192.19L399.33 192.19L399.33 191.15L394.19 191.15L394.19 187.75L398.91 187.75L398.91 186.71L394.19 186.71L394.19 183.41L399.33 183.41L399.33 182.39ZM412.39 182.39L412.39 192.19L418.71 192.19L418.71 191.15L413.58 191.15L413.58 187.75L418.29 187.75L418.29 186.71L413.58 186.71L413.58 183.41L418.71 183.41L418.71 182.39ZM424.23 182.39L424.23 192.19L425.42 192.19L425.42 184.35L430.81 192.19L431.97 192.19L431.97 182.39L430.76 182.39L430.76 190.21L425.39 182.39ZM437.76 187.30C437.76 190.26 439.64 192.33 442.20 192.33C443.65 192.33 444.73 191.74 445.40 190.79L445.66 192.19L446.57 192.19L446.57 187.13L442.28 187.13L442.28 188.16L445.38 188.16L445.38 188.42C445.38 190.21 444.00 191.28 442.34 191.28C440.36 191.28 438.98 189.63 438.98 187.30C438.98 184.96 440.36 183.34 442.35 183.34C443.88 183.34 445.01 184.18 445.38 185.54L446.51 185.15C445.95 183.40 444.40 182.28 442.35 182.28C439.66 182.28 437.76 184.35 437.76 187.30ZM452.36 182.39L452.36 192.19L453.55 192.19L453.55 182.39ZM459.48 182.39L459.48 192.19L460.67 192.19L460.67 184.35L466.06 192.19L467.22 192.19L467.22 182.39L466.02 182.39L466.02 190.21L460.64 182.39ZM473.15 182.39L473.15 192.19L479.48 192.19L479.48 191.15L474.34 191.15L474.34 187.75L479.06 187.75L479.06 186.71L474.34 186.71L474.34 183.41L479.48 183.41L479.48 182.39ZM484.99 182.39L484.99 192.19L491.32 192.19L491.32 191.15L486.18 191.15L486.18 187.75L490.90 187.75L490.90 186.71L486.18 186.71L486.18 183.41L491.32 183.41L491.32 182.39ZM500.50 187.19L498.02 187.19L498.02 183.42L500.50 183.42C502.95 183.42 502.95 187.19 500.50 187.19ZM496.83 192.19L498.02 192.19L498.02 188.23L500.22 188.23L502.76 192.19L504.13 192.19L501.54 188.10C504.51 187.25 504.18 182.39 500.59 182.39L496.83 182.39Z" fill="#9B9B9B"/>
</svg>